<svg width="32" height="32" viewBox="0 0 32 32" fill="none" xmlns="http://www.w3.org/2000/svg">
<g clip-path="url(#clip0_107_9616)">
<path d="M32 0H0V32H32V0Z" fill="#C6EAAE"/>
<path d="M9.4133 9.81359C9.35965 9.9495 9.34776 10.1015 9.38286 10.2503L10.1772 13.5881L7.25531 15.3867C7.1186 15.4712 7.0161 15.595 6.95938 15.7378C6.93636 15.7956 6.92072 15.857 6.9136 15.9209C6.91067 15.947 6.90918 15.9735 6.90918 16.0001C6.90918 16.0272 6.91072 16.054 6.91374 16.0805C6.92081 16.143 6.93603 16.2031 6.95834 16.2598C7.01483 16.4037 7.11776 16.5285 7.25531 16.6135L10.1771 18.412L9.38278 21.7499C9.3246 21.9966 9.39555 22.2521 9.57178 22.4284C9.74802 22.6046 10.0036 22.6755 10.2503 22.6174L13.588 21.8231L15.3866 24.7449C15.5199 24.9605 15.7508 25.091 16 25.091C16.0354 25.091 16.0705 25.0884 16.1049 25.0833C16.1825 25.0717 16.2561 25.0476 16.3237 25.013C16.4405 24.9534 16.5412 24.8616 16.6134 24.7449L18.412 21.823L21.7499 22.6173C21.8996 22.6526 22.0527 22.6404 22.1893 22.5858C22.2666 22.555 22.3394 22.5103 22.4039 22.4516C22.4122 22.4441 22.4204 22.4363 22.4284 22.4283C22.4364 22.4203 22.4441 22.4122 22.4517 22.4039C22.511 22.3386 22.5561 22.2649 22.5869 22.1866C22.6406 22.0507 22.6525 21.8986 22.6174 21.7498L21.8231 18.412L24.7449 16.6135C24.8825 16.5285 24.9854 16.4037 25.0419 16.2598C25.0739 16.1781 25.091 16.0903 25.091 16.0001C25.091 15.9732 25.0895 15.9466 25.0866 15.9203C25.0795 15.8576 25.0643 15.7973 25.0419 15.7404C24.9854 15.5965 24.8825 15.4717 24.7449 15.3867L21.8231 13.5882L22.6174 10.2503C22.6756 10.0036 22.6047 9.74808 22.4284 9.57185C22.2522 9.39562 21.9966 9.32467 21.7499 9.38285L18.4122 10.1771L16.6137 7.25531C16.4804 7.03972 16.2495 6.90918 16.0003 6.90918C15.9648 6.90918 15.9298 6.91182 15.8953 6.91696C15.8178 6.92847 15.7442 6.95256 15.6766 6.98716C15.5598 7.04681 15.459 7.13859 15.3869 7.25531L13.5883 10.1772L10.2504 9.38287C10.1006 9.34754 9.94752 9.35982 9.81094 9.41436C9.73361 9.44514 9.66079 9.48986 9.5963 9.54855C9.588 9.5561 9.57984 9.56388 9.57186 9.57187C9.56387 9.57986 9.55609 9.58801 9.54854 9.59632C9.48917 9.66154 9.44411 9.73528 9.4133 9.81359Z" fill="black"/>
</g>
<defs>
<clipPath id="clip0_107_9616">
<rect width="32" height="32" fill="white"/>
</clipPath>
</defs>
</svg>
